HIERARCHY
ROOT Hips
{
	OFFSET 0.000000 0.000000 0.000000
	CHANNELS 6 Xposition Yposition Zposition Zrotation Yrotation Xrotation 
	JOINT LHipJoint
	{
		OFFSET 0.000000 0.000000 0.000000
		CHANNELS 3 Zrotation Yrotation Xrotation
		JOINT LeftUpLeg
		{
			OFFSET 1.363060 -1.794630 0.839290
			CHANNELS 3 Zrotation Yrotation Xrotation
			JOINT LeftLeg
			{
				OFFSET 2.448110 -6.726130 0.000000
				CHANNELS 3 Zrotation Yrotation Xrotation
				JOINT LeftFoot
				{
					OFFSET 2.562200 -7.039590 0.000000
					CHANNELS 3 Zrotation Yrotation Xrotation
					JOINT LeftToeBase
					{
						OFFSET 0.157640 -0.433110 2.322550
						CHANNELS 3 Zrotation Yrotation Xrotation
						End Site
						{
							OFFSET 0.000000 0.000000 0.000000
						}
					}
				}
			}
		}
	}
	JOINT RHipJoint
	{
		OFFSET 0.000000 0.000000 0.000000
		CHANNELS 3 Zrotation Yrotation Xrotation
		JOINT RightUpLeg
		{
			OFFSET -1.305520 -1.794630 0.839290
			CHANNELS 3 Zrotation Yrotation Xrotation
			JOINT RightLeg
			{
				OFFSET -2.542530 -6.985550 0.000000
				CHANNELS 3 Zrotation Yrotation Xrotation
				JOINT RightFoot
				{
					OFFSET -2.568260 -7.056230 0.000000
					CHANNELS 3 Zrotation Yrotation Xrotation
					JOINT RightToeBase
					{
						OFFSET -0.164730 -0.452590 2.363150
						CHANNELS 3 Zrotation Yrotation Xrotation
						End Site
						{
							OFFSET 0.000000 0.000000 0.000000
						}
					}
				}
			}
		}
	}
}
MOTION
Frames: 11
Frame Time: 0.008333
3.832007 17.357118 0.603857 -171.099097 -42.294913 -176.268798 -11.810589 3.165895 -2.580176 -1.913757 41.430367 -12.278033 -3.048308 -0.649154 1.510523 2.608187 19.799253 -1.492576 2.092000 0.000000 -33.350900 8.857684 -1.259709 7.702302 5.548476 16.548721 -17.595902 4.332870 1.309713 -1.434321 2.549321 20.408630 15.089716 6.642300 -0.000000 -69.197000
3.831169 17.365141 0.632860 -170.947654 -42.300308 -176.264630 -11.755948 3.193089 -2.709637 -1.988562 41.431710 -12.174474 -3.059961 -0.630664 1.093773 2.599510 19.731557 -1.253434 2.167900 -0.000000 -33.572600 8.952621 -1.134490 7.558743 5.467235 16.604725 -17.723640 4.300970 1.284148 -1.167763 2.533009 20.129587 15.124800 6.543401 -0.000000 -69.144700
3.827355 17.374541 0.662408 -170.814043 -42.305156 -176.225402 -11.714717 3.220667 -2.842038 -2.095770 41.472041 -12.076394 -3.076253 -0.618681 0.609971 2.582248 19.621117 -0.964960 2.253600 0.000000 -33.786900 9.034725 -1.019058 7.430867 5.359053 16.695096 -17.897205 4.265135 1.254530 -0.880819 2.515981 19.830198 15.174848 6.443400 0.000001 -69.059500
3.820221 17.384917 0.691800 -170.704118 -42.297807 -176.152774 -11.689473 3.250476 -2.973522 -2.235618 41.574978 -11.992044 -3.099839 -0.613540 0.070864 2.554427 19.456311 -0.632933 2.343700 0.000000 -33.998200 9.100263 -0.917796 7.327585 5.225876 16.820325 -18.108898 4.227912 1.223573 -0.594151 2.499264 19.523087 15.244681 6.347901 -0.000000 -68.947700
3.809536 17.395788 0.720326 -170.620936 -42.271885 -176.048213 -11.681073 3.284013 -3.100254 -2.408712 41.754439 -11.930667 -3.132755 -0.615134 -0.506570 2.515044 19.229563 -0.267069 2.432001 0.000000 -34.210499 9.147098 -0.834205 7.255856 5.069358 16.979788 -18.350926 4.191492 1.193853 -0.326680 2.483588 19.215517 15.334837 6.259100 0.000000 -68.814800
3.795498 17.406615 0.747397 -170.567280 -42.226794 -175.914085 -11.688360 3.321753 -3.219076 -2.615026 42.012113 -11.901255 -3.175860 -0.622768 -1.101257 2.464514 18.940117 0.119004 2.512501 0.000000 -34.426700 9.174936 -0.770138 7.219237 4.890661 17.171432 -18.614446 4.157331 1.167452 -0.094648 2.469224 18.908640 15.443423 6.176100 -0.000000 -68.674000
3.778390 17.416891 0.772470 -170.542969 -42.166755 -175.752374 -11.708763 3.363636 -3.326603 -2.854938 42.335873 -11.910952 -3.228538 -0.635509 -1.690331 2.404780 18.595421 0.508419 2.579601 0.000000 -34.646600 9.185166 -0.726086 7.217249 4.692334 17.386632 -18.892404 4.126261 1.145702 0.094182 2.456300 18.604680 15.562367 6.097100 0.000000 -68.531400
3.758857 17.426197 0.795218 -170.547974 -42.101056 -175.565675 -11.738576 3.408668 -3.419625 -3.127724 42.699545 -11.963328 -3.288300 -0.652157 -2.251380 2.339389 18.212554 0.882635 2.630100 -0.000000 -34.866800 9.180244 -0.700991 7.246493 4.475753 17.617733 -19.176084 4.098332 1.129537 0.232867 2.444407 18.298796 15.683762 6.017699 -0.000000 -68.394700
3.737541 17.434141 0.815564 -170.579858 -42.041319 -175.358135 -11.774143 3.455154 -3.495129 -3.429525 43.067945 -12.057337 -3.351210 -0.671328 -2.763410 2.272869 17.815063 1.221517 2.662500 -0.000000 -35.081400 9.162970 -0.692626 7.300575 4.243744 17.855319 -19.455269 4.073220 1.119384 0.318678 2.432886 17.984488 15.799531 5.932700 -0.000001 -68.274000
3.715415 17.440462 0.833534 -170.639027 -42.001629 -175.133802 -11.811587 3.501314 -3.550012 -3.755266 43.399645 -12.187189 -3.412268 -0.691738 -3.208911 2.210284 17.431868 1.506739 2.677800 -0.000000 -35.282000 9.136766 -0.698044 7.371739 3.997947 18.089836 -19.719885 4.049884 1.115183 0.352630 2.420849 17.653973 15.899999 5.836800 -0.000000 -68.170400
3.693307 17.444916 0.849373 -170.724101 -41.994921 -174.898160 -11.847898 3.545460 -3.582168 -4.096821 43.655640 -12.342399 -3.466510 -0.712174 -3.573617 2.156299 17.091097 1.721440 2.678400 0.000000 -35.459800 9.105102 -0.713958 7.450696 3.741718 18.309057 -19.960200 4.027027 1.116191 0.342505 2.407455 17.303143 15.975655 5.725800 -0.000000 -68.092800
